<svg width="20" height="20" viewBox="0 0 20 20" fill="none" xmlns="http://www.w3.org/2000/svg">
<mask id="mask0_126_7347" style="mask-type:alpha" maskUnits="userSpaceOnUse" x="0" y="0" width="20" height="20">
<rect width="20" height="20" fill="#D9D9D9"/>
</mask>
<g mask="url(#mask0_126_7347)">
<path d="M10.8743 10.0003L7.45768 6.58366C7.3049 6.43088 7.22852 6.2538 7.22852 6.05241C7.22852 5.85102 7.3049 5.67394 7.45768 5.52116C7.61046 5.36838 7.78754 5.29199 7.98893 5.29199C8.19032 5.29199 8.36977 5.37074 8.52727 5.52824L12.4785 9.47949C12.548 9.55449 12.6 9.63574 12.6348 9.72324C12.6695 9.81074 12.6868 9.90449 12.6868 10.0045C12.6868 10.1045 12.6695 10.1982 12.6348 10.2857C12.6 10.3732 12.548 10.4517 12.4785 10.5212L8.52727 14.4724C8.36977 14.6299 8.19379 14.7052 7.99935 14.6982C7.8049 14.6913 7.63129 14.6114 7.47852 14.4587C7.32574 14.3059 7.24935 14.1288 7.24935 13.9274C7.24935 13.726 7.32574 13.5489 7.47852 13.3962L10.8743 10.0003Z" fill="#344F5F"/>
</g>
</svg>
