<svg width="6" height="10" viewBox="0 0 6 10" fill="none" xmlns="http://www.w3.org/2000/svg">
<path d="M2.125 5.00033L5.54167 8.41699C5.69444 8.56977 5.77083 8.74685 5.77083 8.94824C5.77083 9.14963 5.69444 9.32671 5.54167 9.47949C5.38889 9.63227 5.21181 9.70866 5.01042 9.70866C4.80903 9.70866 4.62958 9.62991 4.47208 9.47241L0.520833 5.52116C0.451389 5.44616 0.399306 5.36491 0.364583 5.27741C0.329861 5.18991 0.3125 5.09616 0.3125 4.99616C0.3125 4.89616 0.329861 4.80241 0.364583 4.71491C0.399306 4.62741 0.451389 4.54894 0.520833 4.47949L4.47208 0.528243C4.62958 0.370743 4.80903 0.291992 5.01042 0.291992C5.21181 0.291992 5.38889 0.368381 5.54167 0.521159C5.69444 0.673937 5.77083 0.85102 5.77083 1.05241C5.77083 1.2538 5.69444 1.43088 5.54167 1.58366L2.125 5.00033Z" fill="#CCD4D7"/>
</svg>
