<svg width="9" height="8" viewBox="0 0 9 8" fill="none" xmlns="http://www.w3.org/2000/svg">
<path d="M0.754375 8C0.543125 8 0.364583 7.92813 0.21875 7.78438C0.0729167 7.64062 0 7.4625 0 7.25V0.75C0 0.5375 0.0714585 0.359375 0.214375 0.215624C0.357292 0.0718745 0.534375 0 0.745625 0C0.956875 0 1.13542 0.0718745 1.28125 0.215624C1.42708 0.359375 1.5 0.5375 1.5 0.75V7.25C1.5 7.4625 1.42854 7.64062 1.28562 7.78438C1.14271 7.92813 0.965625 8 0.754375 8ZM6.125 4L8.54167 6.41667C8.69444 6.56944 8.77083 6.74653 8.77083 6.94792C8.77083 7.14931 8.69444 7.32639 8.54167 7.47917C8.38889 7.63194 8.21181 7.70833 8.01042 7.70833C7.80903 7.70833 7.63194 7.63194 7.47917 7.47917L4.52083 4.52083C4.45139 4.44583 4.39931 4.36458 4.36458 4.27708C4.32986 4.18958 4.3125 4.09583 4.3125 3.99583C4.3125 3.89583 4.32986 3.80208 4.36458 3.71458C4.39931 3.62708 4.45139 3.54861 4.52083 3.47917L7.47917 0.520833C7.63194 0.368056 7.80903 0.291667 8.01042 0.291667C8.21181 0.291667 8.38889 0.368056 8.54167 0.520833C8.69444 0.673611 8.77083 0.850694 8.77083 1.05208C8.77083 1.25347 8.69444 1.43056 8.54167 1.58333L6.125 4Z" fill="#CCD4D7"/>
</svg>
