<svg width="20" height="20" viewBox="0 0 20 20" fill="none" xmlns="http://www.w3.org/2000/svg">
<mask id="mask0_126_7351" style="mask-type:alpha" maskUnits="userSpaceOnUse" x="0" y="0" width="20" height="20">
<rect width="20" height="20" fill="#D9D9D9"/>
</mask>
<g mask="url(#mask0_126_7351)">
<path d="M8.87435 10L6.45768 7.58333C6.3049 7.43056 6.22852 7.25347 6.22852 7.05208C6.22852 6.85069 6.3049 6.67361 6.45768 6.52083C6.61046 6.36806 6.78754 6.29167 6.98893 6.29167C7.19032 6.29167 7.3674 6.36806 7.52018 6.52083L10.4785 9.47917C10.548 9.55417 10.6 9.63542 10.6348 9.72292C10.6695 9.81042 10.6868 9.90417 10.6868 10.0042C10.6868 10.1042 10.6695 10.1979 10.6348 10.2854C10.6 10.3729 10.548 10.4514 10.4785 10.5208L7.52018 13.4792C7.3674 13.6319 7.19379 13.7049 6.99935 13.6979C6.8049 13.691 6.63129 13.6111 6.47852 13.4583C6.32574 13.3056 6.24935 13.1285 6.24935 12.9271C6.24935 12.7257 6.32574 12.5486 6.47852 12.3958L8.87435 10ZM14.245 6C14.4562 6 14.6348 6.07187 14.7806 6.21562C14.9264 6.35937 14.9993 6.5375 14.9993 6.75V13.25C14.9993 13.4625 14.9279 13.6406 14.785 13.7844C14.6421 13.9281 14.465 14 14.2537 14C14.0425 14 13.8639 13.9281 13.7181 13.7844C13.5723 13.6406 13.4993 13.4625 13.4993 13.25V6.75C13.4993 6.5375 13.5708 6.35937 13.7137 6.21562C13.8566 6.07187 14.0337 6 14.245 6Z" fill="#344F5F"/>
</g>
</svg>
